<?xml version="1.0" encoding="utf-8"?>
<!-- Generator: Adobe Illustrator 21.0.0, SVG Export Plug-In . SVG Version: 6.00 Build 0)  -->
<svg version="1.1" id="Слой_1" xmlns="http://www.w3.org/2000/svg" xmlns:xlink="http://www.w3.org/1999/xlink" x="0px" y="0px"
	 viewBox="0 0 512 214" enable-background="new 0 0 512 214" xml:space="preserve">
<g>
	<path id="lozenge_2_" d="M509,46.2c0,0-3-21-12.2-30.2C485.2,4,472.2,3.9,466.3,3.2c-42.7-3.1-106.8-3.1-106.8-3.1h-0.1
		c0,0-64.1,0-106.8,3.1c-5.9,0.7-19,0.8-30.6,12.9c-9.2,9.2-12.2,30.2-12.2,30.2s-3.1,24.6-3.1,49.2v23.1c0,24.6,3.1,49.2,3.1,49.2
		s3,21,12.2,30.2c11.7,12.1,26.9,11.8,33.6,13c24.4,2.4,103.7,3.1,103.7,3.1s64.1-0.1,106.8-3.2c5.9-0.7,19-0.8,30.6-12.9
		c9.2-9.2,12.2-30.2,12.2-30.2s3.1-24.6,3.1-49.2V95.4C512.1,70.9,509,46.2,509,46.2z"/>
	<g id="You">
		<path id="u_2_" d="M191.1,173.1h-19.4v-11.2c-7.4,8.5-13.6,12.7-20.4,12.7c-5.9,0-10.1-2.9-12.2-7.9c-1.2-3.1-2.1-8-2.1-15V69.8
			h19.4v76.7c0,4.3,0,6.1,0,7.2c0.4,2.9,1.6,3.9,4.2,3.9c3.7,0,7.1-3.3,11.1-9V69.8h19.4V173.1z"/>
		<path id="o_2_" d="M122.7,103.6c0-11-2.2-19.3-6.1-24.5c-5.2-7.1-13.3-9.9-21.5-9.9c-9.3,0-16.3,2.9-21.5,9.9
			c-4,5.2-6.1,13.6-6.1,24.6v36.7c0,10.9,1.9,18.5,5.9,23.7c5.2,7.1,13.5,10.7,21.7,10.7s16.7-3.7,21.9-10.7
			c3.9-5.2,5.7-12.8,5.7-23.7V103.6z M103.2,142.4c1,10.2-2.1,15.3-8.2,15.3c-6,0-9.2-5.1-8.2-15.3v-40.9c-1-10.2,2.1-15,8.2-15
			c6,0,9.2,4.8,8.2,15V142.4z"/>
		<path id="y_2_" d="M46,116.9v56.2H25.6v-56.2c0,0-21.2-68.9-25.6-81.8h21.5L35.8,89l14.3-53.9h21.5L46,116.9z"/>
	</g>
	<g id="Tube">
		<path id="e_1_" fill="#FFFFFF" d="M486.5,125v-20.9c0-10.9-2.1-18.9-6-24c-5.2-7-12.6-10.7-21.9-10.7c-9.4,0-16.9,3.7-22.2,10.7
			c-3.9,5.2-6.2,13.6-6.2,24.5v35.8c0,10.8,2.6,18.5,6.4,23.6c5.3,7,12.7,10.4,22.4,10.4s17.3-3.7,22.4-11c2.2-3.3,3.7-7,4.3-11
			c0.2-1.8,0.6-6,0.6-12.1v-2.9h-19.4c0,7.5,0,11.9-0.1,12.9c-1,4.9-3.7,7.5-8.3,7.5c-6.3,0-9-4.7-9-14.2v-18.4h37V125z M449.7,98.5
			c0-9.5,2.7-12.2,8.8-12.2s8.6,2.9,8.6,12.3v11.1h-17.4V98.5z"/>
		<path id="b_1_" fill="#FFFFFF" d="M400.8,69.2c-6.8,0-13.6,4.2-19.5,11.6V36.1h-18.4v137h18.4v-10.3c6.1,7.7,12.9,11.7,19.5,11.7
			c7.4,0,12.8-4,15.2-11.6c1.2-4.3,2-11,2-20.4v-40.9c0-9.7-1.2-16.3-2.5-20.4C413.1,73.5,408.1,69.2,400.8,69.2z M398.6,143.4
			c0,10.2-2.5,14.1-7.8,14.1c-3.1,0-6.5-1.5-9.6-4.7V90.9c3.1-3.1,6.5-4.7,9.6-4.7c5.3,0,7.8,3,7.8,13.2V143.4z"/>
		<path id="u_1_" fill="#FFFFFF" d="M347.5,173.1h-19.4v-11.2c-7.4,8.5-13.6,12.7-20.4,12.7c-5.9,0-10.1-2.9-12.2-7.9
			c-1.2-3.1-2.1-8-2.1-15V70.9h19.4v75.6c0,4.3,0,6.1,0,7.2c0.4,2.9,1.6,3.9,4.2,3.9c3.7,0,7.1-3.3,11.1-9V70.9h19.4V173.1z"/>
		<polygon id="T" fill="#FFFFFF" points="273.9,173.1 253.5,173.1 253.5,55.5 232,55.5 232,36.1 296.4,36.1 296.4,55.5 273.9,55.5 
					"/>
	</g>
</g>
</svg>
